<svg width="44" height="44" viewBox="0 0 44 44" fill="none" xmlns="http://www.w3.org/2000/svg">
<rect width="44" height="44" rx="8" fill="#E5FAE5"/>
<path fill-rule="evenodd" clip-rule="evenodd" d="M12 22.2C12 19.76 13.0193 17.42 14.8337 15.6946C16.6482 13.9693 19.109 13 21.675 13C24.241 13 26.7018 13.9693 28.5163 15.6946C30.3307 17.42 31.35 19.76 31.35 22.2C31.35 24.64 30.3307 26.98 28.5163 28.7054C26.7018 30.4307 24.241 31.4 21.675 31.4C19.109 31.4 16.6482 30.4307 14.8337 28.7054C13.0193 26.98 12 24.64 12 22.2ZM21.1229 26.1376L26.6931 19.5161L25.6869 18.7506L20.9371 24.3945L17.5728 21.729L16.7472 22.671L21.1229 26.1376Z" fill="#10B981"/>
</svg>
